<svg width="1347" height="986" viewBox="0 0 1347 986" fill="none" xmlns="http://www.w3.org/2000/svg">
<path fill-rule="evenodd" clip-rule="evenodd" d="M389.603 0H380.128L373.208 6.47296L18.737 338.054L0 355.581L18.737 373.108L656.785 969.953L673.18 985.289L689.576 969.953L1327.62 373.108L1346.36 355.581L1327.62 338.054L973.153 6.47296L966.233 0H956.757H389.603ZM236.597 331.581L393.236 65.1732L621.075 331.581H354.156H236.597ZM649.18 884.125V379.581H354.156H244.649L649.18 884.125ZM444.737 705.871L183.125 379.581H95.9213L444.737 705.871ZM180.914 331.581H95.9213L284.795 154.904L180.914 331.581ZM904.652 48H441.709L673.18 318.655L904.652 48ZM992.205 331.581H725.286L953.125 65.1732L1109.76 331.581H992.205ZM1165.45 331.581L1061.57 154.904L1250.44 331.581H1165.45ZM1163.24 379.581H1250.44L901.624 705.871L1163.24 379.581ZM697.18 379.581V884.125L1101.71 379.581H992.205H697.18ZM956.759 21.2368H389.605L32.1795 355.581L673.182 952.426L1314.18 355.581L956.759 21.2368Z" fill="#432876"/>
</svg>
